G04 EAGLE Gerber X2 export*
%TF.Part,Single*%
%TF.FileFunction,Profile,NP*%
%TF.FilePolarity,Positive*%
%TF.GenerationSoftware,Autodesk,EAGLE,9.6.2*%
%TF.CreationDate,2025-03-16T21:07:39Z*%
G75*
%MOMM*%
%FSLAX34Y34*%
%LPD*%
%IN*%
%AMOC8*
5,1,8,0,0,1.08239X$1,22.5*%
G01*
%ADD10C,0.254000*%


D10*
X0Y25400D02*
X97Y23186D01*
X386Y20989D01*
X865Y18826D01*
X1532Y16713D01*
X2380Y14666D01*
X3403Y12700D01*
X4594Y10831D01*
X5942Y9073D01*
X7440Y7440D01*
X9073Y5942D01*
X10831Y4594D01*
X12700Y3403D01*
X14666Y2380D01*
X16713Y1532D01*
X18826Y865D01*
X20989Y386D01*
X23186Y97D01*
X25400Y0D01*
X838200Y0D01*
X840414Y97D01*
X842611Y386D01*
X844774Y865D01*
X846887Y1532D01*
X848935Y2380D01*
X850900Y3403D01*
X852769Y4594D01*
X854527Y5942D01*
X856161Y7440D01*
X857658Y9073D01*
X859006Y10831D01*
X860197Y12700D01*
X861220Y14666D01*
X862068Y16713D01*
X862735Y18826D01*
X863214Y20989D01*
X863503Y23186D01*
X863600Y25400D01*
X863600Y736600D01*
X863503Y738814D01*
X863214Y741011D01*
X862735Y743174D01*
X862068Y745287D01*
X861220Y747335D01*
X860197Y749300D01*
X859006Y751169D01*
X857658Y752927D01*
X856161Y754561D01*
X854527Y756058D01*
X852769Y757406D01*
X850900Y758597D01*
X848935Y759620D01*
X846887Y760468D01*
X844774Y761135D01*
X842611Y761614D01*
X840414Y761903D01*
X838200Y762000D01*
X25400Y762000D01*
X23186Y761903D01*
X20989Y761614D01*
X18826Y761135D01*
X16713Y760468D01*
X14666Y759620D01*
X12700Y758597D01*
X10831Y757406D01*
X9073Y756058D01*
X7440Y754561D01*
X5942Y752927D01*
X4594Y751169D01*
X3403Y749300D01*
X2380Y747335D01*
X1532Y745287D01*
X865Y743174D01*
X386Y741011D01*
X97Y738814D01*
X0Y736600D01*
X0Y25400D01*
X48020Y32484D02*
X47944Y31416D01*
X47791Y30355D01*
X47563Y29308D01*
X47261Y28280D01*
X46887Y27276D01*
X46442Y26301D01*
X45928Y25361D01*
X45349Y24460D01*
X44707Y23602D01*
X44005Y22792D01*
X43248Y22035D01*
X42438Y21333D01*
X41580Y20691D01*
X40679Y20112D01*
X39739Y19598D01*
X38764Y19153D01*
X37760Y18779D01*
X36732Y18477D01*
X35685Y18249D01*
X34624Y18096D01*
X33556Y18020D01*
X32484Y18020D01*
X31416Y18096D01*
X30355Y18249D01*
X29308Y18477D01*
X28280Y18779D01*
X27276Y19153D01*
X26301Y19598D01*
X25361Y20112D01*
X24460Y20691D01*
X23602Y21333D01*
X22792Y22035D01*
X22035Y22792D01*
X21333Y23602D01*
X20691Y24460D01*
X20112Y25361D01*
X19598Y26301D01*
X19153Y27276D01*
X18779Y28280D01*
X18477Y29308D01*
X18249Y30355D01*
X18096Y31416D01*
X18020Y32484D01*
X18020Y33556D01*
X18096Y34624D01*
X18249Y35685D01*
X18477Y36732D01*
X18779Y37760D01*
X19153Y38764D01*
X19598Y39739D01*
X20112Y40679D01*
X20691Y41580D01*
X21333Y42438D01*
X22035Y43248D01*
X22792Y44005D01*
X23602Y44707D01*
X24460Y45349D01*
X25361Y45928D01*
X26301Y46442D01*
X27276Y46887D01*
X28280Y47261D01*
X29308Y47563D01*
X30355Y47791D01*
X31416Y47944D01*
X32484Y48020D01*
X33556Y48020D01*
X34624Y47944D01*
X35685Y47791D01*
X36732Y47563D01*
X37760Y47261D01*
X38764Y46887D01*
X39739Y46442D01*
X40679Y45928D01*
X41580Y45349D01*
X42438Y44707D01*
X43248Y44005D01*
X44005Y43248D01*
X44707Y42438D01*
X45349Y41580D01*
X45928Y40679D01*
X46442Y39739D01*
X46887Y38764D01*
X47261Y37760D01*
X47563Y36732D01*
X47791Y35685D01*
X47944Y34624D01*
X48020Y33556D01*
X48020Y32484D01*
X845580Y32484D02*
X845504Y31416D01*
X845351Y30355D01*
X845123Y29308D01*
X844821Y28280D01*
X844447Y27276D01*
X844002Y26301D01*
X843488Y25361D01*
X842909Y24460D01*
X842267Y23602D01*
X841565Y22792D01*
X840808Y22035D01*
X839998Y21333D01*
X839140Y20691D01*
X838239Y20112D01*
X837299Y19598D01*
X836324Y19153D01*
X835320Y18779D01*
X834292Y18477D01*
X833245Y18249D01*
X832184Y18096D01*
X831116Y18020D01*
X830044Y18020D01*
X828976Y18096D01*
X827915Y18249D01*
X826868Y18477D01*
X825840Y18779D01*
X824836Y19153D01*
X823861Y19598D01*
X822921Y20112D01*
X822020Y20691D01*
X821162Y21333D01*
X820352Y22035D01*
X819595Y22792D01*
X818893Y23602D01*
X818251Y24460D01*
X817672Y25361D01*
X817158Y26301D01*
X816713Y27276D01*
X816339Y28280D01*
X816037Y29308D01*
X815809Y30355D01*
X815656Y31416D01*
X815580Y32484D01*
X815580Y33556D01*
X815656Y34624D01*
X815809Y35685D01*
X816037Y36732D01*
X816339Y37760D01*
X816713Y38764D01*
X817158Y39739D01*
X817672Y40679D01*
X818251Y41580D01*
X818893Y42438D01*
X819595Y43248D01*
X820352Y44005D01*
X821162Y44707D01*
X822020Y45349D01*
X822921Y45928D01*
X823861Y46442D01*
X824836Y46887D01*
X825840Y47261D01*
X826868Y47563D01*
X827915Y47791D01*
X828976Y47944D01*
X830044Y48020D01*
X831116Y48020D01*
X832184Y47944D01*
X833245Y47791D01*
X834292Y47563D01*
X835320Y47261D01*
X836324Y46887D01*
X837299Y46442D01*
X838239Y45928D01*
X839140Y45349D01*
X839998Y44707D01*
X840808Y44005D01*
X841565Y43248D01*
X842267Y42438D01*
X842909Y41580D01*
X843488Y40679D01*
X844002Y39739D01*
X844447Y38764D01*
X844821Y37760D01*
X845123Y36732D01*
X845351Y35685D01*
X845504Y34624D01*
X845580Y33556D01*
X845580Y32484D01*
X845580Y728444D02*
X845504Y727376D01*
X845351Y726315D01*
X845123Y725268D01*
X844821Y724240D01*
X844447Y723236D01*
X844002Y722261D01*
X843488Y721321D01*
X842909Y720420D01*
X842267Y719562D01*
X841565Y718752D01*
X840808Y717995D01*
X839998Y717293D01*
X839140Y716651D01*
X838239Y716072D01*
X837299Y715558D01*
X836324Y715113D01*
X835320Y714739D01*
X834292Y714437D01*
X833245Y714209D01*
X832184Y714056D01*
X831116Y713980D01*
X830044Y713980D01*
X828976Y714056D01*
X827915Y714209D01*
X826868Y714437D01*
X825840Y714739D01*
X824836Y715113D01*
X823861Y715558D01*
X822921Y716072D01*
X822020Y716651D01*
X821162Y717293D01*
X820352Y717995D01*
X819595Y718752D01*
X818893Y719562D01*
X818251Y720420D01*
X817672Y721321D01*
X817158Y722261D01*
X816713Y723236D01*
X816339Y724240D01*
X816037Y725268D01*
X815809Y726315D01*
X815656Y727376D01*
X815580Y728444D01*
X815580Y729516D01*
X815656Y730584D01*
X815809Y731645D01*
X816037Y732692D01*
X816339Y733720D01*
X816713Y734724D01*
X817158Y735699D01*
X817672Y736639D01*
X818251Y737540D01*
X818893Y738398D01*
X819595Y739208D01*
X820352Y739965D01*
X821162Y740667D01*
X822020Y741309D01*
X822921Y741888D01*
X823861Y742402D01*
X824836Y742847D01*
X825840Y743221D01*
X826868Y743523D01*
X827915Y743751D01*
X828976Y743904D01*
X830044Y743980D01*
X831116Y743980D01*
X832184Y743904D01*
X833245Y743751D01*
X834292Y743523D01*
X835320Y743221D01*
X836324Y742847D01*
X837299Y742402D01*
X838239Y741888D01*
X839140Y741309D01*
X839998Y740667D01*
X840808Y739965D01*
X841565Y739208D01*
X842267Y738398D01*
X842909Y737540D01*
X843488Y736639D01*
X844002Y735699D01*
X844447Y734724D01*
X844821Y733720D01*
X845123Y732692D01*
X845351Y731645D01*
X845504Y730584D01*
X845580Y729516D01*
X845580Y728444D01*
X48020Y728444D02*
X47944Y727376D01*
X47791Y726315D01*
X47563Y725268D01*
X47261Y724240D01*
X46887Y723236D01*
X46442Y722261D01*
X45928Y721321D01*
X45349Y720420D01*
X44707Y719562D01*
X44005Y718752D01*
X43248Y717995D01*
X42438Y717293D01*
X41580Y716651D01*
X40679Y716072D01*
X39739Y715558D01*
X38764Y715113D01*
X37760Y714739D01*
X36732Y714437D01*
X35685Y714209D01*
X34624Y714056D01*
X33556Y713980D01*
X32484Y713980D01*
X31416Y714056D01*
X30355Y714209D01*
X29308Y714437D01*
X28280Y714739D01*
X27276Y715113D01*
X26301Y715558D01*
X25361Y716072D01*
X24460Y716651D01*
X23602Y717293D01*
X22792Y717995D01*
X22035Y718752D01*
X21333Y719562D01*
X20691Y720420D01*
X20112Y721321D01*
X19598Y722261D01*
X19153Y723236D01*
X18779Y724240D01*
X18477Y725268D01*
X18249Y726315D01*
X18096Y727376D01*
X18020Y728444D01*
X18020Y729516D01*
X18096Y730584D01*
X18249Y731645D01*
X18477Y732692D01*
X18779Y733720D01*
X19153Y734724D01*
X19598Y735699D01*
X20112Y736639D01*
X20691Y737540D01*
X21333Y738398D01*
X22035Y739208D01*
X22792Y739965D01*
X23602Y740667D01*
X24460Y741309D01*
X25361Y741888D01*
X26301Y742402D01*
X27276Y742847D01*
X28280Y743221D01*
X29308Y743523D01*
X30355Y743751D01*
X31416Y743904D01*
X32484Y743980D01*
X33556Y743980D01*
X34624Y743904D01*
X35685Y743751D01*
X36732Y743523D01*
X37760Y743221D01*
X38764Y742847D01*
X39739Y742402D01*
X40679Y741888D01*
X41580Y741309D01*
X42438Y740667D01*
X43248Y739965D01*
X44005Y739208D01*
X44707Y738398D01*
X45349Y737540D01*
X45928Y736639D01*
X46442Y735699D01*
X46887Y734724D01*
X47261Y733720D01*
X47563Y732692D01*
X47791Y731645D01*
X47944Y730584D01*
X48020Y729516D01*
X48020Y728444D01*
M02*
