G04 EAGLE Gerber X2 export*
%TF.Part,Single*%
%TF.FileFunction,Soldermask,Top,1*%
%TF.FilePolarity,Positive*%
%TF.GenerationSoftware,Autodesk,EAGLE,9.6.2*%
%TF.CreationDate,2025-03-18T09:50:27Z*%
G75*
%MOMM*%
%FSLAX34Y34*%
%LPD*%
%INSoldermask Top*%
%AMOC8*
5,1,8,0,0,1.08239X$1,22.5*%
G01*
%ADD10C,3.203200*%
%ADD11P,1.869504X8X22.500000*%
%ADD12P,1.951982X8X22.500000*%
%ADD13C,1.803400*%
%ADD14C,1.727200*%
%ADD15C,1.727200*%
%ADD16R,2.133600X2.133600*%
%ADD17C,2.082800*%
%ADD18P,2.969212X8X22.500000*%
%ADD19R,2.082800X2.082800*%
%ADD20R,1.763200X1.763200*%
%ADD21C,1.763200*%
%ADD22C,1.993900*%
%ADD23C,1.524000*%
%ADD24C,1.625600*%


D10*
X33020Y33020D03*
X830580Y33020D03*
X830580Y728980D03*
X33020Y728980D03*
D11*
X45720Y314960D03*
X45720Y340360D03*
X71120Y314960D03*
X71120Y340360D03*
X96520Y314960D03*
X96520Y340360D03*
X121920Y314960D03*
X121920Y340360D03*
X147320Y314960D03*
X147320Y340360D03*
X172720Y314960D03*
X172720Y340360D03*
X45720Y386080D03*
X45720Y411480D03*
X71120Y386080D03*
X71120Y411480D03*
X96520Y386080D03*
X96520Y411480D03*
X121920Y386080D03*
X121920Y411480D03*
X147320Y386080D03*
X147320Y411480D03*
X172720Y386080D03*
X172720Y411480D03*
D12*
X469900Y596900D03*
D13*
X444500Y596900D03*
D14*
X622300Y680212D02*
X637540Y680212D01*
X637540Y654812D02*
X622300Y654812D01*
X622300Y629412D02*
X637540Y629412D01*
X637540Y604012D02*
X622300Y604012D01*
X622300Y578612D02*
X637540Y578612D01*
X637540Y553212D02*
X622300Y553212D01*
X622300Y527812D02*
X637540Y527812D01*
X637540Y502412D02*
X622300Y502412D01*
X622300Y477012D02*
X637540Y477012D01*
X637540Y451612D02*
X622300Y451612D01*
X622300Y426212D02*
X637540Y426212D01*
X637540Y400812D02*
X622300Y400812D01*
X622300Y375412D02*
X637540Y375412D01*
X637540Y350012D02*
X622300Y350012D01*
X622300Y324612D02*
X637540Y324612D01*
X637540Y299212D02*
X622300Y299212D01*
X622300Y273812D02*
X637540Y273812D01*
X637540Y248412D02*
X622300Y248412D01*
X622300Y223012D02*
X637540Y223012D01*
X292100Y680212D02*
X276860Y680212D01*
X276860Y654812D02*
X292100Y654812D01*
X292100Y629412D02*
X276860Y629412D01*
X276860Y604012D02*
X292100Y604012D01*
X292100Y578612D02*
X276860Y578612D01*
X276860Y553212D02*
X292100Y553212D01*
X292100Y527812D02*
X276860Y527812D01*
X276860Y502412D02*
X292100Y502412D01*
X292100Y477012D02*
X276860Y477012D01*
X276860Y451612D02*
X292100Y451612D01*
X292100Y426212D02*
X276860Y426212D01*
X276860Y400812D02*
X292100Y400812D01*
X292100Y375412D02*
X276860Y375412D01*
X276860Y350012D02*
X292100Y350012D01*
X292100Y324612D02*
X276860Y324612D01*
X276860Y299212D02*
X292100Y299212D01*
X292100Y273812D02*
X276860Y273812D01*
X276860Y248412D02*
X292100Y248412D01*
X292100Y223012D02*
X276860Y223012D01*
D15*
X759460Y396240D03*
X734060Y396240D03*
X759460Y340360D03*
X734060Y340360D03*
X759460Y284480D03*
X734060Y284480D03*
X759460Y228600D03*
X734060Y228600D03*
D14*
X678180Y680212D02*
X662940Y680212D01*
X662940Y654812D02*
X678180Y654812D01*
X678180Y629412D02*
X662940Y629412D01*
X662940Y604012D02*
X678180Y604012D01*
X678180Y578612D02*
X662940Y578612D01*
X662940Y553212D02*
X678180Y553212D01*
X678180Y527812D02*
X662940Y527812D01*
X662940Y502412D02*
X678180Y502412D01*
X678180Y477012D02*
X662940Y477012D01*
X662940Y451612D02*
X678180Y451612D01*
X678180Y426212D02*
X662940Y426212D01*
X662940Y400812D02*
X678180Y400812D01*
X678180Y375412D02*
X662940Y375412D01*
X662940Y350012D02*
X678180Y350012D01*
X678180Y324612D02*
X662940Y324612D01*
X662940Y299212D02*
X678180Y299212D01*
X678180Y273812D02*
X662940Y273812D01*
X662940Y248412D02*
X678180Y248412D01*
X678180Y223012D02*
X662940Y223012D01*
X251460Y680212D02*
X236220Y680212D01*
X236220Y654812D02*
X251460Y654812D01*
X251460Y629412D02*
X236220Y629412D01*
X236220Y604012D02*
X251460Y604012D01*
X251460Y578612D02*
X236220Y578612D01*
X236220Y553212D02*
X251460Y553212D01*
X251460Y527812D02*
X236220Y527812D01*
X236220Y502412D02*
X251460Y502412D01*
X251460Y477012D02*
X236220Y477012D01*
X236220Y451612D02*
X251460Y451612D01*
X251460Y426212D02*
X236220Y426212D01*
X236220Y400812D02*
X251460Y400812D01*
X251460Y375412D02*
X236220Y375412D01*
X236220Y350012D02*
X251460Y350012D01*
X251460Y324612D02*
X236220Y324612D01*
X236220Y299212D02*
X251460Y299212D01*
X251460Y273812D02*
X236220Y273812D01*
X236220Y248412D02*
X251460Y248412D01*
X251460Y223012D02*
X236220Y223012D01*
D16*
X40670Y653020D03*
X66100Y653020D03*
X180290Y653020D03*
X154860Y653020D03*
X180290Y463020D03*
X154860Y463020D03*
X40670Y463020D03*
X66100Y463020D03*
D17*
X732790Y510540D03*
X732790Y612140D03*
X760730Y612140D03*
X760730Y510540D03*
X828040Y424180D03*
X828040Y322580D03*
X800100Y322580D03*
X800100Y424180D03*
X800100Y297180D03*
X800100Y195580D03*
X828040Y195580D03*
X828040Y297180D03*
X779272Y442214D03*
X714248Y442214D03*
X779272Y487426D03*
X714248Y487426D03*
X714248Y680466D03*
X779272Y680466D03*
X714248Y635254D03*
X779272Y635254D03*
D18*
X71120Y205740D03*
X147320Y205740D03*
D19*
X269240Y76200D03*
D17*
X269240Y101600D03*
X269240Y127000D03*
X269240Y152400D03*
D20*
X330200Y680200D03*
D21*
X330200Y654800D03*
X330200Y223000D03*
X330200Y629400D03*
X330200Y604000D03*
X330200Y578600D03*
X330200Y553200D03*
X330200Y527800D03*
X330200Y502400D03*
X330200Y477000D03*
X330200Y451600D03*
X330200Y426200D03*
X330200Y400800D03*
X330200Y375400D03*
X330200Y350000D03*
X330200Y324600D03*
X330200Y299200D03*
X330200Y273800D03*
X330200Y248400D03*
X584200Y680200D03*
X584200Y654800D03*
X584200Y629400D03*
X584200Y604000D03*
X584200Y578600D03*
X584200Y553200D03*
X584200Y527800D03*
X584200Y502400D03*
X584200Y477000D03*
X584200Y451600D03*
X584200Y426200D03*
X584200Y400800D03*
X584200Y375400D03*
X584200Y350000D03*
X584200Y324600D03*
X584200Y299200D03*
X584200Y273800D03*
X584200Y248400D03*
X584200Y223000D03*
D22*
X85490Y703517D02*
X85490Y721424D01*
X135490Y721424D02*
X135490Y703517D01*
D23*
X708660Y82804D02*
X708660Y69596D01*
X734060Y69596D02*
X734060Y82804D01*
X734060Y145796D02*
X734060Y159004D01*
X708660Y159004D02*
X708660Y145796D01*
X759460Y82804D02*
X759460Y69596D01*
X784860Y69596D02*
X784860Y82804D01*
X759460Y145796D02*
X759460Y159004D01*
X784860Y159004D02*
X784860Y145796D01*
D24*
X184912Y116840D02*
X170688Y116840D01*
X170688Y91440D02*
X184912Y91440D01*
X184912Y66040D02*
X170688Y66040D01*
X211328Y66040D02*
X225552Y66040D01*
X225552Y91440D02*
X211328Y91440D01*
X211328Y116840D02*
X225552Y116840D01*
M02*
