M48
;GenerationSoftware,Autodesk,EAGLE,9.6.2*%
;CreationDate,2025-03-16T21:07:39Z*%
FMAT,2
ICI,OFF
METRIC,TZ,000.000
T8C0.800
T7C0.813
T6C0.914
T5C1.000
T4C1.016
T3C1.040
T2C1.194
T1C3.000
%
G90
M71
T1
X3302Y3302
X83058Y3302
X83058Y72898
X3302Y72898
T2
X13549Y71247
X8549Y71247
T3
X33020Y47700
X33020Y50240
X33020Y57860
X33020Y60400
X33020Y62940
X33020Y22300
X33020Y65480
X33020Y68020
X58420Y45160
X33020Y45160
X33020Y42620
X33020Y40080
X33020Y37540
X33020Y35000
X33020Y32460
X33020Y29920
X33020Y27380
X33020Y24840
X58420Y68020
X58420Y65480
X58420Y62940
X58420Y60400
X58420Y57860
X58420Y55320
X58420Y52780
X58420Y50240
X58420Y47700
X33020Y52780
X58420Y40080
X58420Y37540
X58420Y35000
X58420Y32460
X58420Y42620
X58420Y27380
X58420Y24840
X58420Y22300
X33020Y55320
X58420Y29920
T4
X62992Y52781
X62992Y50241
X62992Y47701
X62992Y45161
X62992Y42621
X62992Y40081
X62992Y37541
X62992Y35001
X62992Y32461
X62992Y29921
X62992Y27381
X62992Y24841
X62992Y22301
X28448Y68021
X28448Y65481
X28448Y62941
X28448Y60401
X28448Y57861
X28448Y55321
X28448Y52781
X28448Y50241
X28448Y47701
X28448Y45161
X28448Y42621
X28448Y40081
X28448Y37541
X28448Y35001
X28448Y32461
X28448Y29921
X28448Y27381
X28448Y24841
X28448Y22301
X67056Y68021
X67056Y65481
X67056Y62941
X67056Y60401
X67056Y57861
X67056Y55321
X67056Y52781
X67056Y50241
X67056Y47701
X67056Y45161
X67056Y42621
X67056Y40081
X67056Y37541
X67056Y35001
X67056Y32461
X67056Y29921
X67056Y27381
X67056Y24841
X67056Y22301
X24384Y68021
X24384Y65481
X24384Y62941
X24384Y60401
X24384Y57861
X24384Y55321
X14732Y41148
X24384Y50241
X24384Y47701
X24384Y45161
X24384Y42621
X24384Y40081
X24384Y37541
X24384Y35001
X24384Y32461
X24384Y29921
X24384Y27381
X24384Y24841
X24384Y22301
X4067Y65302
X6610Y65302
X18029Y65302
X15486Y65302
X18029Y46302
X15486Y46302
X4067Y46302
X6610Y46302
X77927Y44221
X71425Y44221
X77927Y48743
X71425Y48743
X71425Y68047
X77927Y68047
X71425Y63525
X77927Y63525
X7112Y20574
X14732Y20574
X4572Y31496
X4572Y34036
X7112Y31496
X7112Y34036
X9652Y31496
X9652Y34036
X12192Y31496
X12192Y34036
X14732Y31496
X14732Y34036
X17272Y31496
X17272Y34036
X4572Y38608
X4572Y41148
X7112Y38608
X7112Y41148
X9652Y38608
X9652Y41148
X24384Y52781
X12192Y38608
X12192Y41148
X14732Y38608
X17272Y38608
X17272Y41148
X62992Y68021
X62992Y65481
X62992Y62941
X62992Y60401
X62992Y57861
X62992Y55321
T5
X26924Y12700
X26924Y15240
X26924Y7620
X26924Y10160
T6
X21844Y11684
X17780Y6604
X17780Y9144
X17780Y11684
X21844Y9144
X21844Y6604
T7
X76073Y51054
X82804Y42418
X82804Y32258
X80010Y32258
X80010Y42418
X80010Y29718
X80010Y19558
X75946Y15240
X78486Y15240
X44450Y59690
X76073Y61214
X46990Y59690
X82804Y19558
X82804Y29718
X73279Y51054
X73279Y61214
X70866Y7620
X73406Y7620
X73406Y15240
X70866Y15240
X75946Y7620
X78486Y7620
T8
X73406Y22860
X75946Y22860
X73406Y28448
X73406Y39624
X75946Y34036
X73406Y34036
X75946Y28448
X75946Y39624
M30